<svg width="288" height="240" viewBox="0 0 288 240" fill="none" xmlns="http://www.w3.org/2000/svg">
<path d="M111.618 38.9686C129.502 24.8201 152.568 25.573 166.043 0C170.01 18.3522 168.786 32.6445 159.058 49.0922C142.654 76.8124 109.17 79.9084 89.54 97.2692C113.729 86.4499 129.571 85.2906 150.67 67.8879C153.654 67.8466 156.934 67.7291 159.89 67.7786C158.549 72.1879 151.564 79.7489 148.12 83.0561C146.435 83.5669 145.59 83.6886 143.837 83.9272C123.246 86.74 115.3 102.929 104.089 117.556C93.5687 131.283 76.4032 132.675 61.8434 140L61.5347 140.159C75.8643 138.289 84.0187 138.085 96.9767 131.395C80.7208 161.792 66.3987 150.142 46.6132 165.804C48.6372 167.088 50.8928 168.175 51.8162 170.336C51.7921 171.396 51.9935 172.381 50.8763 172.993C43.9615 176.785 43.8164 174.126 42.0158 183.544C40.9915 188.905 40.8347 199.502 41.8632 205.092C28.954 210.27 20.2792 216.885 10.4768 226.825C7.69584 229.645 5.6863 232.534 2.74517 235.287C2.18692 233.909 2.8923 232.339 3.28417 230.599C2.67436 230.698 0.827058 231.327 0.132683 231.547L0 230.378C2.54444 212.871 3.22504 204.612 0.296291 187.305C6.46729 182.48 14.1329 176.198 18.5013 169.714C22.1828 164.25 13.0171 158.509 25.3474 157.748C14.0208 123.737 31.0207 93.7098 54.2905 70.0977C49.7695 81.6727 48.9534 85.8146 49.0091 98.2758C55.264 69.382 71.2958 52.8593 98.122 41.1915C101.82 39.5833 105.368 37.4333 109.393 36.721L111.618 38.9686Z" fill="#40A156"/>
<path d="M25.3474 157.748L27.9936 159.134L29.4037 158.671C31.3445 159.953 31.9378 160.418 34.2389 161.137C33.4661 167.44 26.7197 181.524 23.3571 187.134C26.0026 188.26 27.3756 191.198 26.5423 193.95C25.7091 196.702 22.9371 198.385 20.1114 197.855C16.093 204.902 6.39098 226.079 3.28417 230.599C2.67436 230.698 0.827058 231.327 0.132683 231.547L0 230.378C2.54444 212.871 3.22504 204.612 0.296291 187.305C6.46729 182.48 14.1329 176.198 18.5013 169.714C22.1828 164.25 13.0171 158.509 25.3474 157.748Z" fill="#43A558"/>
<path d="M17.6075 196.697C15.4233 194.93 14.8754 191.823 16.3233 189.414C17.7712 187.006 20.7721 186.033 23.3571 187.134C26.0026 188.26 27.3756 191.198 26.5423 193.95C25.7091 196.702 22.9371 198.385 20.1114 197.855C19.1936 197.682 18.3335 197.285 17.6075 196.697Z" fill="#F6F7F7"/>
<path d="M17.6075 196.697C18.3335 197.285 19.1936 197.682 20.1114 197.855C16.093 204.902 6.39098 226.079 3.28417 230.599C2.67436 230.698 0.827058 231.327 0.132683 231.547L0 230.378C3.49525 227.705 14.4299 202.551 17.6075 196.697Z" fill="#DAF2DE"/>
<path d="M139.174 37C133.976 42.4419 123.561 48.4736 117.14 53.1406C81.0425 79.3709 54.4402 114.387 35.8262 154.719C34.8238 156.891 33.7142 159.008 32.835 161.251C30.5342 160.532 29.9406 160.067 28 158.785C31.0601 149.681 35.7609 140.859 40.5205 132.51C60.6092 97.272 81.6791 74.9431 114.617 51.7959L125.851 44.5977C130.333 42.1411 134.774 39.6078 139.174 37Z" fill="#F2FAF2"/>
<path d="M100.614 53.0821C103.115 45.2027 104.338 43.1806 109.393 36.721L111.618 38.9686C107.379 42.7722 103.895 48.3338 100.614 53.0821Z" fill="#DAF2DE"/>
<path d="M116.02 51.6815C115.67 46.3832 122.999 44.7015 127.254 44.4835L116.02 51.6815Z" fill="#40935A"/>
<path d="M242.314 21.4456C244.356 20.923 244.741 20.9444 246.859 21.0441C257.639 21.2902 269.25 23.971 276.318 32.3887C305.633 67.3138 270.11 122.835 243.174 147.276C225.051 163.726 205.918 174.918 184.358 183.094C175.249 186.529 165.919 189.336 156.425 191.496C145.707 193.906 101.674 198.633 96.8756 205.976C96.3524 206.777 96.206 207.738 96.0898 208.668C96.4679 211.025 97.5411 211.637 99.3259 213.168C106.721 218.354 109.545 223.942 100.576 229.87C85.1709 239.603 38.1054 241.151 20.8065 237.872L19.4356 236.178C21.494 236.131 23.859 235.82 25.9311 235.607C37.4089 235.117 79.7851 231.86 85.162 222.334C85.2576 216.469 74.0486 214.662 72.3484 207.077C71.9173 205.154 71.8712 202.676 73.0998 201.068C87.6679 182.017 129.468 178.866 148.938 173.366C198.871 159.257 231.287 136.434 256.896 92.5457C258.45 86.7868 261.977 81.639 263.847 73.1663L265.057 67.2622C265.098 55.7787 260.595 45.7672 257.7 33.9969L255.102 33.2179C253.342 25.9759 248.715 23.8685 242.314 21.4456Z" fill="#43A558"/>
<path d="M257.7 33.9969C260.512 35.3796 262.547 40.1464 263.524 42.9991C263.97 44.2814 264.369 45.5781 264.727 46.8872C265.586 52.125 266.15 62.1104 265.057 67.2622C265.098 55.7787 260.595 45.7672 257.7 33.9969Z" fill="#DAF2DE"/>
<path d="M99.3258 213.168C106.721 218.354 109.545 223.942 100.576 229.87C99.4455 228.246 98.8226 214.47 99.3258 213.168Z" fill="#40935A"/>
<path d="M159.89 67.7786C180.467 67.7648 217.97 69.3957 236.154 64.7424C232.249 74.1309 227.808 83.1372 223.71 92.2687C213.81 114.356 205.175 130.568 181.684 140.178C165.83 146.664 152.252 145.979 135.14 145.957C131.125 154.871 127.007 163.741 122.792 172.564C114.61 174.251 105.594 175.97 97.7205 178.633C105.554 163.865 112.289 147.822 119.843 132.876C131.173 110.457 131.606 98.1693 159.67 96.4201C149.646 112.682 150.835 123.227 134.851 132.5C155.256 126.579 181.67 133.414 193.742 110.888C213.089 74.7999 160.488 85.532 143.837 83.9272C145.59 83.6886 146.435 83.5669 148.12 83.0561C151.564 79.7489 158.549 72.1879 159.89 67.7786Z" fill="#43A558"/>
<path d="M218.692 27.1674C226.921 22.9039 233.136 21.8086 242.314 21.4456C248.715 23.8685 253.342 25.9759 255.102 33.2179L254.284 41.087C253.472 40.2276 252.634 39.3956 251.767 38.5912C239.915 27.4074 234.236 26.7281 218.692 27.1674Z" fill="#40935A"/>
<path d="M8.72986 236.665C6.4508 236.916 5.99497 237.054 3.99847 235.997C7.4456 234.919 21.494 235.503 25.9311 235.607C23.859 235.82 21.494 236.131 19.4356 236.178L20.8065 237.872C16.4402 237.703 13.0329 237.243 8.72986 236.665Z" fill="#829286"/>
<path d="M8.72986 236.665C11.7679 236.261 16.2635 236.268 19.4356 236.178L20.8065 237.872C16.4402 237.703 13.0329 237.243 8.72986 236.665Z" fill="#2E523D"/>
</svg>
